<?xml version="1.0" standalone="no"?>
<!DOCTYPE svg PUBLIC "-//W3C//DTD SVG 20010904//EN"
 "http://www.w3.org/TR/2001/REC-SVG-20010904/DTD/svg10.dtd">
<svg version="1.0" xmlns="http://www.w3.org/2000/svg"
 width="1024.000000pt" height="1024.000000pt" viewBox="0 0 1024.000000 1024.000000"
 preserveAspectRatio="xMidYMid meet">

<g transform="translate(0.000000,1024.000000) scale(0.100000,-0.100000)"
fill="#000000" stroke="none">
<path d="M5000 8653 c-698 -38 -1291 -232 -1860 -609 -459 -304 -835 -708
-1143 -1229 -331 -560 -505 -1287 -467 -1950 10 -167 13 -198 46 -420 30 -203
126 -544 208 -740 61 -144 145 -312 213 -425 26 -45 56 -95 66 -113 11 -18 55
-82 99 -144 281 -392 642 -731 1069 -1001 109 -69 436 -230 564 -277 281 -106
481 -158 760 -200 491 -74 978 -55 1417 55 289 72 464 137 733 270 710 351
1273 914 1630 1628 71 142 160 351 152 358 -2 2 -23 -45 -46 -104 -148 -367
-398 -762 -669 -1057 -96 -104 -282 -285 -295 -285 -2 0 52 55 121 123 390
384 685 845 865 1352 43 119 110 348 126 425 24 121 37 200 46 279 3 30 8 64
10 75 8 33 14 194 8 200 -4 3 -12 -2 -18 -11 -11 -15 -12 -14 -12 9 0 19 4 24
16 21 14 -4 17 6 18 61 1 40 -2 68 -10 74 -9 8 -12 3 -12 -19 0 -16 3 -29 8
-29 4 0 7 -5 7 -11 0 -5 -4 -8 -9 -5 -4 3 -6 -5 -4 -18 4 -19 -2 -28 -23 -40
-16 -8 -23 -15 -16 -16 6 0 12 -4 12 -10 0 -5 -6 -7 -14 -4 -22 8 -15 50 9 50
11 -1 20 5 20 14 0 18 -69 15 -100 -4 -36 -23 -51 -25 -52 -7 -1 9 9 21 23 28
13 6 22 7 18 2 -3 -5 2 -9 11 -9 12 0 15 6 10 21 -5 16 -3 20 6 16 8 -2 13 -9
12 -14 -1 -6 9 -10 23 -10 21 0 22 2 12 15 -11 13 -10 14 10 8 21 -7 29 3 22
29 -2 6 -3 19 -2 30 0 11 -2 14 -5 7 -3 -6 -10 -9 -16 -5 -7 3 -9 3 -5 -2 4
-4 2 -15 -5 -24 -11 -14 -10 -14 6 -2 14 11 17 11 17 -2 0 -17 -41 -31 -50
-16 -4 5 -15 7 -25 3 -11 -5 -16 -4 -12 3 4 5 0 18 -7 29 -10 14 -17 16 -27 7
-20 -15 -49 -12 -49 4 0 8 -5 11 -12 7 -6 -4 -8 -3 -5 4 11 17 -3 41 -20 35
-12 -5 -12 -7 -1 -14 11 -7 11 -9 0 -9 -7 0 -12 -8 -11 -17 2 -28 0 -43 -8
-43 -5 0 -8 34 -8 75 0 65 2 75 18 75 15 0 16 3 6 22 -12 22 -12 22 -20 3 -5
-13 -8 -1 -8 35 0 37 3 49 8 35 5 -11 6 -27 3 -35 -3 -10 -2 -12 6 -5 7 7 8
26 3 60 -5 28 -9 39 -10 26 -2 -39 -12 -17 -16 36 -29 342 -133 750 -270 1053
-246 546 -606 984 -1104 1340 -476 339 -1096 556 -1676 586 -71 4 -131 7 -132
8 -1 1 -3 74 -5 164 l-3 162 76 0 c188 0 493 -43 743 -105 160 -40 195 -41 49
-2 -234 63 -540 110 -777 120 -96 4 -100 4 -123 -21 -22 -24 -23 -31 -23 -179
0 -119 -3 -154 -12 -151 -10 4 -14 47 -16 161 -2 141 -4 157 -20 158 -10 0 -5
5 12 11 21 8 25 13 15 19 -8 5 -21 8 -29 7 -8 -1 -40 -3 -70 -5z m36 -31 c-5
-8 -66 -4 -66 4 0 2 16 4 36 4 19 0 33 -4 30 -8z m-156 -6 c0 -2 -18 -6 -40
-8 -22 -2 -40 0 -40 4 0 5 18 8 40 8 22 0 40 -2 40 -4z m-140 -10 c0 -2 -9 -6
-20 -9 -11 -3 -20 -1 -20 4 0 5 9 9 20 9 11 0 20 -2 20 -4z m37 -2 c-3 -3 -12
-4 -19 -1 -8 3 -5 6 6 6 11 1 17 -2 13 -5z m633 -355 c58 -6 139 -17 180 -25
41 -8 95 -17 120 -20 25 -4 77 -15 115 -26 39 -11 99 -28 135 -38 136 -36 398
-134 411 -152 3 -5 15 -10 27 -13 29 -5 269 -123 286 -141 8 -7 20 -15 27 -16
24 -5 99 -58 99 -70 0 -6 3 -9 6 -5 3 3 15 -3 27 -14 11 -10 27 -19 34 -19 7
0 13 -4 13 -10 0 -5 6 -10 13 -10 8 0 22 -9 32 -20 9 -10 21 -18 25 -17 13 4
103 -66 205 -158 166 -151 177 -160 186 -157 5 1 8 -2 7 -6 -2 -5 45 -60 105
-123 59 -63 116 -126 126 -140 55 -70 151 -201 151 -205 0 -3 5 -10 10 -17 22
-26 61 -90 80 -131 11 -25 25 -50 32 -58 47 -50 142 -232 153 -291 4 -20 11
-37 16 -37 5 0 8 -3 7 -7 -2 -5 7 -28 19 -53 11 -25 27 -63 33 -85 7 -22 16
-44 20 -50 11 -14 49 -122 60 -170 5 -22 25 -110 44 -195 95 -419 109 -740 52
-1195 -15 -117 -19 -141 -24 -150 -8 -13 -9 -17 -27 -113 -18 -94 -100 -346
-152 -466 -118 -272 -263 -519 -432 -736 -121 -156 -378 -418 -528 -537 -367
-293 -827 -510 -1297 -612 -125 -27 -368 -58 -529 -67 -70 -4 -130 -11 -134
-16 -3 -6 -8 -6 -12 1 -4 6 -70 15 -161 21 -497 34 -898 149 -1343 387 -117
62 -277 160 -277 169 0 1 14 -3 30 -9 17 -6 30 -15 30 -19 0 -4 5 -8 11 -8 6
0 41 -17 77 -39 214 -124 389 -204 603 -274 212 -71 239 -77 434 -112 17 -2
41 -7 55 -10 188 -42 702 -54 925 -22 334 49 606 125 887 250 788 348 1412
1034 1699 1866 115 333 164 640 163 1026 -1 274 -15 406 -75 675 -118 537
-399 1059 -785 1460 -476 493 -1124 833 -1779 934 -449 69 -977 34 -1380 -91
-414 -128 -709 -280 -1060 -547 -143 -108 -378 -339 -496 -488 -239 -300 -428
-639 -530 -952 -17 -50 -33 -98 -36 -106 -7 -18 -5 -11 -22 -80 -8 -30 -19
-66 -26 -80 -12 -24 -41 -140 -50 -200 -2 -14 -11 -70 -20 -125 -28 -174 -37
-333 -32 -560 3 -121 8 -229 10 -240 3 -11 8 -45 12 -75 7 -57 25 -147 52
-264 9 -38 17 -76 18 -85 1 -9 4 -23 7 -31 29 -73 66 -193 71 -230 l7 -45 -15
33 c-27 62 -105 336 -125 441 -53 279 -73 631 -51 892 83 987 606 1872 1421
2404 599 390 1334 573 2030 504z m127 -80 c177 -22 300 -47 458 -94 409 -120
775 -312 1110 -582 774 -622 1200 -1579 1144 -2570 -21 -376 -100 -723 -236
-1042 -332 -777 -948 -1384 -1718 -1691 -206 -83 -497 -158 -695 -179 -186
-20 -221 -23 -337 -23 -197 0 -210 2 -222 29 -12 25 -26 30 -37 11 -4 -7 -4
-10 1 -6 9 8 35 -9 35 -23 0 -16 -40 -4 -46 14 -3 11 -12 16 -20 13 -9 -3 -12
-1 -9 4 3 6 1 10 -4 10 -6 0 -11 8 -12 18 0 14 -2 14 -9 -3 -8 -18 -9 -18 -9
-2 -1 11 -13 23 -31 30 -16 6 -30 15 -30 20 0 4 5 5 11 1 8 -4 8 0 0 15 -7 11
-17 21 -24 21 -11 0 -142 19 -252 35 -67 10 -334 85 -445 125 -426 154 -797
388 -1110 700 -561 559 -870 1299 -870 2085 0 450 105 904 303 1305 34 69 60
131 59 139 -2 7 1 11 5 8 5 -3 19 15 32 39 19 35 22 47 12 57 -15 15 -31 -6
-31 -40 0 -13 -4 -23 -9 -23 -6 0 -5 14 0 35 6 19 8 39 4 44 -8 14 6 42 17 35
6 -4 5 -10 -3 -15 -10 -6 -8 -8 7 -7 15 2 20 7 16 21 -4 15 -11 18 -35 13 -25
-5 -28 -4 -17 9 7 8 14 29 16 45 2 17 14 41 26 53 13 12 24 28 24 35 3 33 4
34 20 21 15 -12 16 -11 10 9 -6 19 6 41 66 120 102 135 115 150 268 302 188
188 249 239 470 387 175 117 282 178 433 246 345 155 738 249 1127 271 123 7
385 -5 537 -25z m-1447 -43 c0 -2 -7 -7 -16 -10 -8 -3 -12 -2 -9 4 6 10 25 14
25 6z m-71 -29 c-12 -10 -113 -47 -116 -43 -7 7 109 56 116 50 2 -2 2 -5 0 -7z
m-152 -63 c-16 -9 -31 -13 -34 -10 -3 3 5 10 18 15 37 15 47 12 16 -5z m-182
-85 c-22 -12 -74 -39 -115 -61 -41 -23 -70 -36 -65 -30 16 17 189 112 205 112
8 0 -3 -9 -25 -21z m-195 -104 c0 -2 -10 -10 -22 -16 -21 -11 -22 -11 -9 4 13
16 31 23 31 12z m-80 -50 c0 -2 -10 -9 -22 -15 -22 -11 -22 -10 -4 4 21 17 26
19 26 11z m-95 -63 c-39 -35 -136 -101 -120 -83 11 13 42 39 70 57 47 32 71
44 50 26z m-155 -117 c-7 -8 -17 -15 -23 -15 -6 0 -2 7 9 15 25 19 30 19 14 0z
m-90 -68 c0 -2 -12 -14 -27 -28 l-28 -24 24 28 c23 25 31 32 31 24z m-205
-194 c-276 -278 -513 -620 -654 -946 -19 -42 -36 -75 -39 -73 -2 3 2 20 11 38
8 18 33 72 55 119 135 295 359 608 618 867 79 78 146 142 149 142 4 0 -59 -66
-140 -147z m-330 -633 c3 -5 1 -10 -4 -10 -6 0 -11 5 -11 10 0 6 2 10 4 10 3
0 8 -4 11 -10z m-386 -459 c-12 -28 -24 -50 -26 -47 -2 2 6 27 18 55 12 29 23
50 25 48 3 -2 -5 -27 -17 -56z m-128 -384 c-10 -9 -11 -8 -5 6 3 10 9 15 12
12 3 -3 0 -11 -7 -18z m-44 -219 c-3 -8 -6 -5 -6 6 -1 11 2 17 5 13 3 -3 4
-12 1 -19z m-10 -50 c-3 -8 -6 -5 -6 6 -1 11 2 17 5 13 3 -3 4 -12 1 -19z
m6482 -593 c6 3 11 1 11 -6 0 -7 8 -6 24 4 21 14 25 14 30 1 4 -10 0 -14 -11
-12 -9 2 -18 -3 -20 -10 -3 -7 1 -10 10 -6 8 3 18 1 22 -5 3 -6 -1 -11 -9 -11
-9 0 -16 -4 -16 -10 0 -5 -5 -10 -12 -10 -6 0 -8 3 -5 6 10 10 -12 44 -27 44
-13 0 -28 -23 -30 -45 -1 -5 -8 -11 -17 -13 -11 -2 -18 6 -21 23 -3 14 -1 25
3 25 5 0 9 -6 10 -12 0 -10 2 -10 6 0 2 6 9 10 14 6 5 -3 9 0 9 5 0 6 -4 11
-9 11 -5 0 -8 11 -8 25 l0 25 18 -21 c10 -11 23 -18 28 -14z m1 -80 c11 -13
10 -14 -4 -9 -9 3 -16 10 -16 15 0 13 6 11 20 -6z m-29 -33 c-6 -2 -11 -13
-12 -25 -1 -18 -2 -16 -9 7 -11 36 -3 51 17 34 10 -8 11 -14 4 -16z m129 3
c-10 -12 -10 -15 3 -15 19 0 13 -26 -7 -33 -9 -3 -12 4 -11 22 2 30 14 55 22
47 3 -3 0 -12 -7 -21z m-34 -41 c0 -22 -2 -30 -7 -22 -4 8 -6 23 -4 34 7 36
10 33 11 -12z m-76 10 c0 -8 -5 -12 -10 -9 -6 4 -8 11 -5 16 9 14 15 11 15 -7z
m47 -4 c-1 -11 -5 -20 -9 -20 -10 0 -10 4 -2 24 8 22 13 20 11 -4z m123 -31
c0 -5 -4 -9 -10 -9 -5 0 -10 -7 -10 -16 0 -8 -5 -12 -11 -8 -7 4 -7 10 -1 16
6 6 8 17 5 24 -4 10 0 12 11 8 9 -3 16 -10 16 -15z m-120 -14 c0 -12 -19 -12
-23 0 -4 9 -1 12 9 8 7 -3 14 -7 14 -8z m-65 -5 c-3 -5 -14 -10 -23 -9 -14 0
-13 2 3 9 27 11 27 11 20 0z m130 0 c3 -6 -1 -7 -9 -4 -18 7 -21 14 -7 14 6 0
13 -4 16 -10z m79 -6 c3 -8 2 -12 -4 -9 -6 3 -10 10 -10 16 0 14 7 11 14 -7z
m-38 -52 c-18 -18 -31 -10 -23 12 4 10 13 13 22 9 15 -5 15 -7 1 -21z m-111
-2 c-11 -5 -14 -9 -7 -9 15 -1 16 -37 1 -47 -7 -4 -9 0 -5 14 4 11 2 23 -4 27
-14 9 -2 25 18 24 14 0 13 -2 -3 -9z m146 -9 c-8 -5 -10 -14 -6 -22 6 -11 5
-11 -5 -2 -14 12 -6 33 13 33 8 0 7 -3 -2 -9z m-71 -5 c0 -3 -4 -8 -10 -11 -5
-3 -10 -1 -10 4 0 6 5 11 10 11 6 0 10 -2 10 -4z m-39 -19 c-6 -8 -7 -18 -3
-22 4 -5 2 -5 -5 -1 -14 8 -6 36 9 36 7 0 6 -5 -1 -13z m65 -35 c-11 -10 -15
4 -8 28 l7 25 3 -23 c2 -13 1 -26 -2 -30z m4 -28 c0 -8 -19 -13 -24 -6 -3 5 1
9 9 9 8 0 15 -2 15 -3z m4 -90 c3 -8 2 -12 -4 -9 -6 3 -10 10 -10 16 0 14 7
11 14 -7z m-6475 -604 c0 -10 -3 -8 -9 5 -12 27 -12 43 0 25 5 -8 9 -22 9 -30z
m60 -55 c0 -5 -6 1 -14 15 -8 14 -14 30 -14 35 0 6 6 -1 14 -15 8 -14 14 -29
14 -35z m-29 -20 c0 -5 -5 -3 -10 5 -5 8 -10 20 -10 25 0 6 5 3 10 -5 5 -8 10
-19 10 -25z m60 -60 c0 -5 -5 -3 -10 5 -5 8 -10 20 -10 25 0 6 5 3 10 -5 5 -8
10 -19 10 -25z m42 -82 c35 -78 38 -83 33 -83 -5 0 -65 116 -65 125 0 17 13
-1 32 -42z m113 -223 c9 -16 13 -30 11 -30 -3 0 -12 14 -21 30 -9 17 -13 30
-11 30 3 0 12 -13 21 -30z m195 -294 c4 -13 16 -31 25 -40 10 -9 15 -19 13
-22 -3 -2 -24 21 -48 52 -30 40 -36 53 -21 44 12 -6 26 -21 31 -34z m371 -433
c13 -16 12 -17 -3 -4 -17 13 -22 21 -14 21 2 0 10 -8 17 -17z m64 -63 c10 -11
16 -20 13 -20 -3 0 -13 9 -23 20 -10 11 -16 20 -13 20 3 0 13 -9 23 -20z m85
-75 c13 -14 21 -25 18 -25 -2 0 -15 11 -28 25 -13 14 -21 25 -18 25 2 0 15
-11 28 -25z m60 -47 c0 -6 -6 -5 -15 2 -8 7 -15 14 -15 16 0 2 7 1 15 -2 8 -4
15 -11 15 -16z m140 -106 c-13 -5 -121 77 -128 96 -2 7 28 -11 67 -40 39 -29
67 -54 61 -56z m4180 -116 c0 -2 -8 -10 -17 -17 -16 -13 -17 -12 -4 4 13 16
21 21 21 13z m-2550 -341 c-15 -17 -40 -20 -40 -4 0 6 7 9 15 5 8 -3 15 -1 15
4 0 6 5 10 11 10 8 0 8 -5 -1 -15z m-35 -43 c5 -13 3 -14 -6 -5 -6 6 -17 10
-23 9 -6 -2 -8 -1 -3 1 4 3 5 9 2 14 -4 5 1 6 9 3 8 -3 17 -13 21 -22z m79 2
c4 -10 1 -14 -6 -12 -15 5 -23 28 -10 28 5 0 13 -7 16 -16z m163 -397 c-1 -45
-3 -5 -3 88 0 94 2 130 3 82 2 -48 2 -125 0 -170z"/>
<path d="M4940 8008 c-586 -44 -1167 -272 -1633 -640 -133 -106 -382 -357
-478 -483 -326 -429 -506 -852 -595 -1403 -25 -156 -30 -537 -10 -718 10 -82
24 -176 31 -209 12 -50 14 -52 9 -15 -3 25 -13 90 -22 145 -21 131 -24 616 -3
750 86 575 279 1034 612 1457 106 134 356 382 487 481 521 398 1145 613 1759
606 302 -3 392 -14 641 -75 290 -70 549 -170 767 -296 209 -120 346 -213 460
-312 183 -160 249 -223 315 -306 25 -30 50 -61 57 -68 7 -7 29 -34 50 -60 21
-26 40 -49 43 -52 7 -7 48 -65 105 -150 214 -317 398 -796 445 -1160 31 -234
30 -228 33 -410 7 -372 -35 -646 -148 -984 -246 -736 -824 -1369 -1536 -1685
-392 -173 -760 -251 -1189 -251 -272 0 -471 26 -738 96 -900 236 -1639 888
-1982 1749 -54 134 -109 310 -130 413 -7 34 -15 60 -18 58 -9 -9 30 -162 79
-308 111 -335 276 -641 495 -918 82 -103 332 -355 430 -433 436 -344 884 -547
1409 -638 430 -74 914 -41 1350 93 683 210 1257 670 1646 1320 205 343 347
781 389 1197 13 132 13 414 0 556 -48 519 -244 1033 -557 1463 -172 237 -358
424 -603 608 -167 125 -300 206 -495 300 -258 124 -501 201 -790 249 -270 44
-436 52 -685 33z"/>
<path d="M5080 7743 c-25 -9 -175 -65 -335 -125 -159 -60 -453 -171 -652 -245
-200 -75 -363 -141 -363 -147 0 -6 55 -37 121 -70 143 -69 163 -92 155 -171
-11 -106 -24 -191 -35 -218 -14 -36 -14 -122 -1 -148 8 -13 21 -19 48 -19 59
0 142 12 142 20 0 4 -6 7 -12 7 -7 -1 -39 2 -72 7 l-59 8 7 81 c4 44 12 87 19
95 6 8 12 33 12 56 3 221 5 256 19 256 19 0 30 -71 24 -145 -3 -34 0 -56 6
-58 7 -3 10 18 8 65 -3 56 -1 69 10 65 7 -3 36 -13 63 -21 95 -30 124 -74 125
-188 0 -93 11 -103 165 -156 124 -43 209 -62 282 -62 l62 0 101 83 c136 110
165 129 190 125 18 -2 -8 -32 -145 -168 -91 -91 -164 -171 -163 -179 2 -8 14
-18 28 -21 60 -17 118 -52 124 -75 4 -14 6 -112 5 -219 -1 -123 3 -208 11
-230 13 -42 48 -66 103 -73 22 -2 49 -9 58 -14 17 -9 52 12 142 88 53 43 10
23 -55 -26 l-66 -50 -23 26 c-13 14 -43 38 -66 54 l-43 30 -2 257 -3 257 -77
3 c-50 2 -78 7 -78 14 0 12 279 298 291 298 3 0 78 -68 165 -152 154 -147 156
-144 9 11 -38 41 -61 68 -50 60 11 -8 22 -16 25 -19 31 -31 94 -69 129 -77 48
-13 66 -9 261 51 180 55 244 77 255 88 7 7 -4 8 -32 4 -24 -3 -43 -1 -43 4 0
5 10 10 23 12 21 3 22 7 27 137 l5 133 35 13 c19 7 67 23 105 35 39 12 97 33
130 45 33 12 102 35 153 51 108 33 107 37 -18 79 -47 15 -89 31 -95 35 -5 4
-50 21 -100 38 -49 17 -133 47 -185 67 -52 20 -131 50 -175 66 -44 17 -129 48
-190 71 -60 22 -144 53 -185 68 -209 76 -272 102 -262 112 5 5 87 -21 198 -63
104 -39 286 -106 404 -149 118 -43 330 -121 470 -173 258 -96 318 -116 290
-99 -8 5 -188 73 -400 151 -212 78 -511 189 -665 246 -154 58 -287 105 -295
104 -8 0 -35 -8 -60 -16z m49 -830 c-1 -14 -299 -255 -310 -251 -12 4 75 83
209 191 79 63 103 77 101 60z m726 -143 c-3 -5 -16 -10 -28 -9 -21 0 -21 1 -2
9 28 12 37 12 30 0z"/>
<path d="M6520 7241 c0 -5 -21 -14 -47 -20 -65 -16 -439 -137 -485 -158 l-38
-16 2 -61 2 -61 3 52 4 51 197 66 c289 97 372 129 372 143 0 7 -2 13 -5 13 -3
0 -5 -4 -5 -9z"/>
<path d="M6164 6936 c-44 -39 -42 -51 12 -93 l30 -23 35 38 c32 34 32 35 3 9
l-32 -28 -21 30 c-22 30 -22 31 -4 56 10 13 24 22 32 20 11 -5 12 -3 1 10 -7
8 -13 15 -15 15 -1 0 -19 -15 -41 -34z"/>
<path d="M4121 6894 c0 -11 3 -14 6 -6 3 7 2 16 -1 19 -3 4 -6 -2 -5 -13z"/>
<path d="M5952 6860 c0 -14 2 -19 5 -12 2 6 2 18 0 25 -3 6 -5 1 -5 -13z"/>
<path d="M4107 6855 c-4 -8 -3 -16 1 -19 4 -3 9 4 9 15 2 23 -3 25 -10 4z"/>
<path d="M4131 6794 c0 -11 3 -14 6 -6 3 7 2 16 -1 19 -3 4 -6 -2 -5 -13z"/>
<path d="M2577 6763 c-10 -10 -8 -33 2 -33 6 0 9 9 8 20 -1 23 -1 22 -10 13z"/>
<path d="M4142 6735 c0 -16 2 -22 5 -12 2 9 2 23 0 30 -3 6 -5 -1 -5 -18z"/>
<path d="M6047 6662 c-33 -34 -33 -43 -4 -69 37 -34 43 -33 78 5 l34 37 -33
-29 c-31 -29 -32 -29 -47 -10 -19 25 -19 39 1 69 22 34 4 32 -29 -3z"/>
<path d="M4510 6574 l-45 -46 44 -39 c24 -21 49 -39 55 -39 7 0 30 19 51 42
l40 41 -40 -31 c-40 -32 -56 -31 -61 5 -2 9 -5 26 -8 37 -3 12 2 30 10 40 14
19 15 19 52 -15 l37 -34 -40 43 c-21 23 -42 42 -45 42 -3 0 -26 -21 -50 -46z"/>
<path d="M5692 6567 c-18 -18 -32 -40 -32 -48 0 -19 62 -79 80 -78 8 0 31 19
50 42 l34 42 -35 -33 -36 -33 -26 34 -25 34 23 29 c20 26 24 27 41 14 18 -14
18 -13 0 8 -25 30 -36 28 -74 -11z"/>
<path d="M6405 6540 l-29 -30 29 -30 c33 -34 47 -37 66 -14 12 15 11 16 -8 10
-30 -10 -59 30 -39 53 40 48 24 56 -19 11z"/>
<path d="M3770 6511 l-35 -29 29 -31 c17 -17 35 -31 41 -31 6 0 24 14 41 32
l29 32 -29 -22 c-33 -26 -46 -17 -46 32 0 22 4 27 16 22 14 -5 15 -4 4 9 -7 8
-13 15 -14 15 -1 0 -17 -13 -36 -29z"/>
<path d="M6084 6459 c-60 -39 -112 -74 -117 -78 -23 -22 -30 -154 -32 -619 -2
-468 -3 -493 -21 -514 -19 -21 -214 -152 -583 -390 -107 -70 -190 -117 -199
-113 -8 3 -172 108 -366 234 -193 126 -370 239 -393 252 l-43 24 0 551 0 552
-92 59 c-111 71 -118 75 -118 70 0 -3 45 -33 100 -68 l100 -64 2 -555 3 -554
135 -87 c714 -458 700 -450 728 -435 15 8 37 24 49 35 12 12 24 21 27 21 3 0
119 76 258 168 139 93 300 200 358 238 l105 69 3 557 2 557 73 47 c39 26 89
60 109 76 l37 29 4 -108 3 -108 2 113 c2 86 -1 112 -11 112 -7 0 -62 -32 -123
-71z"/>
<path d="M4066 6473 c-19 -123 -26 -311 -26 -733 0 -263 4 -490 9 -508 7 -23
6 -32 -2 -32 -40 1 -39 -1 -35 486 2 258 2 477 0 487 -3 15 -166 107 -190 107
-8 0 -23 -99 -38 -250 -11 -104 -11 -844 -1 -857 7 -9 4 -13 -7 -13 -15 0 -16
42 -16 453 0 420 -1 455 -17 469 -20 17 -142 73 -146 67 -13 -17 -32 -181 -37
-309 -6 -160 -4 -662 3 -715 3 -16 5 -36 6 -43 2 -20 51 -62 72 -62 19 0 140
-41 314 -105 110 -41 370 -134 565 -201 69 -23 161 -57 205 -73 44 -17 88 -31
97 -31 9 0 53 -16 97 -35 43 -19 91 -35 104 -35 14 0 48 -5 76 -12 60 -13 32
-21 366 102 138 50 313 113 390 140 417 143 855 307 855 320 0 4 -44 -8 -97
-27 -54 -19 -334 -120 -623 -223 -289 -104 -594 -213 -678 -244 l-152 -55 -91
35 c-50 19 -240 89 -422 154 -183 65 -381 137 -442 159 -60 21 -180 64 -265
95 -85 31 -189 69 -230 85 l-75 30 -5 513 c-3 282 -4 515 -3 516 1 2 26 -9 55
-25 l53 -28 3 -462 c2 -428 4 -463 20 -471 9 -5 193 -78 407 -162 215 -84 525
-206 691 -271 l300 -119 360 144 c197 78 515 205 707 281 l347 137 1 87 c0 47
0 262 -1 476 l-2 391 52 24 c28 13 56 30 62 37 19 23 -13 15 -77 -20 -54 -29
-60 -36 -63 -67 -2 -19 -9 -41 -15 -48 -15 -18 -22 -443 -13 -811 l1 -64 -120
-48 c-191 -76 -571 -228 -675 -269 -52 -21 -156 -62 -230 -92 -74 -30 -183
-74 -242 -97 l-107 -42 -40 21 c-22 11 -94 40 -158 64 -184 69 -368 143 -462
185 -47 22 -101 45 -120 52 -19 7 -30 14 -24 16 5 2 52 -13 104 -33 117 -45
192 -65 199 -53 7 11 131 -39 166 -68 15 -12 31 -20 36 -17 4 3 8 1 8 -4 0 -6
7 -13 16 -16 8 -3 12 -2 9 4 -3 6 1 7 9 4 9 -3 13 -10 10 -15 -3 -5 2 -6 10
-3 8 3 65 -17 126 -45 61 -28 116 -51 122 -51 6 0 92 44 192 99 99 54 255 136
346 181 91 45 249 132 353 193 l187 111 -1 451 c0 247 -4 468 -8 490 -5 23 -9
-160 -10 -445 l-1 -485 -22 -14 c-55 -35 -315 -179 -500 -277 -112 -59 -277
-147 -367 -195 l-165 -87 -31 24 c-17 13 -56 35 -86 49 -29 14 -76 38 -104 53
-27 16 -126 68 -220 116 -93 49 -195 102 -225 119 -30 16 -109 57 -175 91 -66
34 -139 74 -162 89 l-43 27 -1 258 c-1 141 -3 410 -4 597 -1 187 -5 355 -9
374 -6 26 -5 32 4 26 9 -5 11 -4 6 3 -15 24 -34 11 -40 -25z m-141 -251 l70
-38 3 -492 2 -492 33 -20 c17 -11 157 -83 310 -161 152 -77 277 -142 277 -144
0 -5 5 -7 -300 123 -124 52 -266 112 -317 133 -50 21 -105 45 -122 54 l-31 16
0 498 c0 274 -3 513 -6 530 -4 17 -3 31 2 31 5 0 41 -17 79 -38z"/>
<path d="M5302 6323 l2 -168 3 158 4 157 47 1 c26 0 65 4 87 8 33 7 24 9 -52
10 l-93 1 2 -167z"/>
<path d="M6383 6259 c-98 -51 -99 -53 -107 -92 -21 -98 -25 -169 -27 -536 -1
-220 -6 -401 -10 -401 -4 0 -6 -8 -5 -17 0 -10 -20 -28 -54 -48 -71 -41 -352
-192 -452 -242 -77 -38 -97 -58 -79 -76 6 -6 49 5 121 32 61 22 117 41 125 41
8 0 15 4 15 8 0 4 17 14 38 22 55 20 450 188 500 212 l42 22 -2 495 -3 496 -5
-488 -5 -488 -140 -60 c-324 -138 -597 -250 -601 -246 -3 3 75 46 173 97 218
113 392 210 399 222 3 4 5 228 4 496 l0 487 70 40 c63 35 103 65 87 65 -3 0
-41 -18 -84 -41z"/>
<path d="M4405 6173 c-3 -27 -10 -64 -15 -83 -5 -19 -10 -204 -12 -411 -2
-355 -1 -378 17 -405 10 -16 19 -31 19 -34 -1 -10 22 -27 76 -57 58 -32 92
-53 239 -145 50 -32 99 -58 109 -58 10 0 27 -7 38 -16 10 -8 13 -12 5 -8 -9 5
-12 3 -7 -5 4 -6 11 -9 16 -6 5 3 18 -3 30 -15 12 -12 33 -20 55 -20 20 0 54
-9 76 -20 50 -26 51 -24 47 109 l-3 103 -240 152 -240 152 -3 42 c-3 45 8 54
37 28 9 -8 52 -27 96 -41 44 -15 97 -36 117 -46 52 -26 58 -24 57 19 -1 36 -2
36 -8 7 -6 -29 -7 -30 -21 -10 -20 28 -270 167 -287 161 -10 -4 -13 -25 -11
-83 l3 -78 220 -137 c308 -193 275 -159 275 -281 l0 -102 -25 27 c-14 15 -55
46 -92 68 -38 23 -131 81 -208 131 -77 49 -182 115 -232 147 l-93 57 0 415 c0
228 -4 430 -9 448 -5 17 -7 32 -4 32 5 0 192 -111 251 -148 12 -8 22 -12 22
-9 0 8 -266 167 -278 167 -6 0 -13 -21 -17 -47z"/>
<path d="M5800 6186 c-30 -18 -145 -87 -255 -153 -323 -194 -353 -213 -359
-228 -12 -33 -17 -161 -7 -187 14 -36 26 -35 86 5 94 63 331 197 347 197 9 0
21 -13 27 -30 12 -36 10 -38 -149 -133 -112 -67 -106 -58 -130 -179 -11 -56
-12 -57 -92 -112 -56 -38 -86 -66 -96 -88 -8 -20 -16 -88 -19 -166 -5 -111 -3
-142 12 -192 10 -33 23 -60 29 -60 6 0 55 28 109 63 53 34 210 134 347 222
l249 160 1 167 0 168 -40 26 c-22 15 -40 29 -40 32 0 4 16 23 36 43 l35 36 1
124 c0 303 -1 319 -19 319 -10 0 -43 -15 -73 -34z m40 -436 c-22 -19 -40 -40
-40 -46 0 -5 20 -25 45 -42 l46 -32 -3 -156 -3 -157 -333 -214 c-183 -117
-333 -213 -335 -213 -1 0 -1 92 1 205 l3 205 37 27 c20 14 54 39 74 55 20 15
39 28 42 28 3 0 6 -45 6 -100 0 -77 3 -100 13 -100 15 0 138 73 252 149 65 43
70 49 73 86 1 22 -1 59 -5 82 l-8 41 -144 -84 c-79 -46 -145 -83 -145 -82 -1
2 0 45 2 96 l4 92 47 27 c25 15 89 52 141 84 l95 57 -1 66 c0 36 -3 68 -6 71
-2 3 -103 -54 -224 -126 -120 -72 -226 -135 -234 -139 -13 -7 -15 6 -15 88 l0
95 300 181 c166 100 312 189 325 199 l25 17 3 -212 3 -213 -41 -35z m-185
-331 c-6 -29 -1 -25 -140 -114 l-120 -77 -3 58 c-2 31 -1 63 2 70 3 7 53 40
113 73 l108 61 22 -24 c14 -15 21 -33 18 -47z"/>
<path d="M4710 6046 c0 -2 48 -34 108 -70 59 -35 143 -89 187 -118 l80 -53 3
-100 3 -100 -33 32 c-39 37 -430 273 -453 273 -3 0 -5 -35 -5 -78 l0 -78 155
-92 c101 -61 155 -99 156 -110 0 -11 2 -12 6 -4 8 21 -15 40 -164 129 -119 71
-143 90 -141 107 5 36 30 27 203 -67 22 -12 42 -25 45 -28 12 -15 202 -89 229
-89 7 0 11 32 11 100 0 97 -1 102 -27 127 -16 14 -89 61 -163 105 -74 44 -150
89 -167 100 -18 11 -33 17 -33 14z"/>
<path d="M6703 5555 c0 -245 3 -411 8 -385 9 56 9 603 0 725 -5 55 -8 -79 -8
-340z"/>
<path d="M6776 5938 c-23 -80 -29 -174 -30 -444 -1 -325 -1 -324 54 -346 85
-34 66 -41 442 155 192 100 361 192 376 204 15 12 -139 -64 -342 -169 l-369
-191 -53 26 -54 27 -2 365 c-2 201 0 365 5 365 4 0 84 -38 177 -85 93 -47 173
-85 177 -84 9 0 -291 153 -345 176 -26 11 -33 11 -36 1z"/>
<path d="M3110 5709 c-222 -110 -406 -202 -409 -204 -2 -3 2 -12 10 -21 7 -9
18 -25 24 -36 12 -23 85 -63 390 -216 237 -119 291 -135 346 -106 73 37 69 15
69 403 0 328 -3 381 -19 381 -3 0 -188 -90 -411 -201z m410 -176 l0 -358 -39
-21 -39 -21 -6 21 c-3 11 0 25 6 31 8 7 9 5 4 -9 -5 -16 -4 -17 8 -7 8 7 13
22 11 34 -4 21 -4 21 10 3 14 -18 15 -10 15 82 0 75 -3 102 -12 102 -9 0 -8 3
2 10 8 5 11 12 7 16 -4 4 -16 -2 -27 -14 l-21 -22 21 0 c11 0 20 -4 20 -9 0
-5 -8 -8 -17 -6 -10 2 -22 4 -27 4 -4 1 -6 8 -2 16 6 17 -2 45 -14 45 -4 0
-11 -7 -14 -16 -3 -8 -2 -12 4 -9 6 3 7 -1 4 -9 -3 -9 -10 -13 -15 -10 -5 3
-9 -2 -9 -11 0 -9 4 -14 9 -11 5 4 7 -3 4 -14 -3 -11 -10 -20 -15 -20 -6 0 -7
7 -4 16 5 12 2 15 -9 10 -10 -3 -18 1 -22 12 -4 9 -13 23 -20 30 -11 11 -15
10 -22 -10 -5 -15 -5 -25 3 -30 6 -4 1 -6 -11 -5 -17 1 -21 6 -18 22 2 11 4
24 4 28 1 5 5 6 10 2 5 -3 12 -1 16 5 4 6 10 8 15 5 5 -3 12 6 16 21 4 17 2
29 -6 34 -8 5 -14 26 -15 49 -1 22 2 38 7 35 10 -6 10 -1 2 21 -6 15 -8 15
-25 -1 -10 -9 -15 -23 -12 -32 3 -12 2 -14 -4 -4 -5 7 -8 37 -6 67 2 46 0 55
-17 60 -11 4 -20 12 -20 19 0 8 -7 19 -15 26 -12 10 -16 8 -23 -10 -7 -19 -10
-21 -15 -7 -7 18 26 43 42 32 5 -3 12 1 14 7 3 7 6 1 6 -13 1 -15 8 -29 16
-33 13 -4 13 -2 5 14 -13 24 -13 43 0 35 6 -4 8 -10 5 -15 -3 -4 1 -13 9 -19
7 -6 11 -22 8 -36 -3 -18 0 -25 12 -25 9 0 16 -4 16 -10 0 -5 6 -10 13 -10 6
1 2 9 -10 19 -27 22 -30 36 -7 27 14 -5 15 -4 4 9 -7 8 -10 21 -7 30 4 8 -1
19 -11 24 -9 6 -12 11 -5 11 7 0 10 7 6 17 -5 13 -2 15 11 10 9 -4 15 -3 11 2
-3 5 28 28 69 50 40 23 79 48 86 56 7 8 16 15 21 15 5 0 9 -159 9 -357z m-280
156 c0 -5 -4 -9 -10 -9 -5 0 -10 7 -10 16 0 8 5 12 10 9 6 -3 10 -10 10 -16z
m-63 5 c-4 -4 2 -19 13 -34 14 -20 16 -27 5 -27 -8 0 -13 5 -12 11 1 6 -7 10
-18 8 -15 -2 -16 0 -7 6 11 8 11 10 -1 15 -15 5 -43 -39 -29 -45 4 -2 5 -16 1
-33 -6 -27 -7 -28 -8 -5 -1 20 -3 22 -11 10 -8 -12 -10 -10 -8 9 2 13 -3 26
-11 29 -10 3 -12 -3 -9 -28 4 -28 3 -31 -7 -16 -15 20 -9 52 11 60 8 3 14 1
14 -4 0 -6 4 -10 10 -10 5 0 7 7 4 15 -4 10 4 20 27 30 38 16 45 18 36 9z m56
-31 c-7 -2 -19 -2 -25 0 -7 3 -2 5 12 5 14 0 19 -2 13 -5z m23 -31 c1 -15 -1
-21 -3 -14 -3 6 -12 12 -21 12 -15 1 -14 3 2 15 11 8 20 15 20 15 1 0 2 -12 2
-28z m-196 4 c0 -3 -4 -8 -10 -11 -5 -3 -10 -1 -10 4 0 6 5 11 10 11 6 0 10
-2 10 -4z m-30 -37 c0 -5 -4 -9 -10 -9 -5 0 -10 7 -10 16 0 8 5 12 10 9 6 -3
10 -10 10 -16z m180 6 c0 -8 -2 -15 -4 -15 -2 0 -6 7 -10 15 -3 8 -1 15 4 15
6 0 10 -7 10 -15z m-213 -26 c0 -24 -2 -27 -10 -14 -5 9 -6 23 -3 31 8 22 13
17 13 -17z m173 21 c0 -5 -4 -10 -10 -10 -5 0 -10 5 -10 10 0 6 5 10 10 10 6
0 10 -4 10 -10z m-204 -22 c-1 -18 -7 -23 -28 -23 -29 -1 -36 9 -16 21 6 4 14
2 16 -4 2 -7 8 -12 13 -12 6 0 7 5 4 10 -3 6 -3 15 0 20 9 15 12 12 11 -12z
m298 -12 c-5 -14 -9 -15 -15 -5 -5 8 -3 17 4 21 15 9 19 4 11 -16z m-202 -35
c-4 -11 -7 -11 -10 -3 -2 7 -7 10 -12 7 -4 -3 -6 4 -3 14 4 16 8 17 18 8 7 -7
10 -18 7 -26z m65 -3 c-3 -8 -6 -5 -6 6 -1 11 2 17 5 13 3 -3 4 -12 1 -19z
m136 -3 c-3 -9 -8 -14 -10 -11 -3 3 -2 9 2 15 9 16 15 13 8 -4z m38 -42 c-9
-16 -10 -15 -9 9 2 16 6 24 11 19 5 -5 5 -17 -2 -28z m-231 15 c0 -4 -6 -8
-14 -8 -8 0 -17 4 -20 8 -2 4 4 8 15 8 10 0 19 -4 19 -8z m70 2 c0 -5 -2 -10
-4 -10 -3 0 -8 5 -11 10 -3 6 -1 10 4 10 6 0 11 -4 11 -10z m84 -5 c-4 -8 -8
-15 -10 -15 -2 0 -4 7 -4 15 0 8 4 15 10 15 5 0 7 -7 4 -15z m39 -8 c3 -8 2
-19 -3 -26 -5 -9 -9 -4 -12 13 -5 27 6 36 15 13z m-63 -17 c0 -5 -2 -10 -4
-10 -3 0 -8 5 -11 10 -3 6 -1 10 4 10 6 0 11 -4 11 -10z m104 -35 c-4 -8 -8
-15 -10 -15 -2 0 -4 7 -4 15 0 8 4 15 10 15 5 0 7 -7 4 -15z m41 -85 c3 -5 1
-10 -4 -10 -6 0 -11 5 -11 10 0 6 2 10 4 10 3 0 8 -4 11 -10z m115 -4 c0 -3
-4 -8 -10 -11 -5 -3 -10 -1 -10 4 0 6 5 11 10 11 6 0 10 -2 10 -4z m-100 -26
c0 -5 -2 -10 -4 -10 -3 0 -8 5 -11 10 -3 6 -1 10 4 10 6 0 11 -4 11 -10z m-56
-21 c-8 -14 -24 -10 -24 6 0 9 6 12 15 9 8 -4 12 -10 9 -15z m94 -4 c-3 -3 -9
2 -12 12 -6 14 -5 15 5 6 7 -7 10 -15 7 -18z m-158 -25 c0 -5 -7 -7 -15 -4 -8
4 -15 8 -15 10 0 2 7 4 15 4 8 0 15 -4 15 -10z m220 -4 c0 -8 -4 -17 -8 -20
-4 -2 -8 4 -8 15 0 10 4 19 8 19 4 0 8 -6 8 -14z"/>
<path d="M3340 5710 c-8 -5 -11 -12 -7 -17 5 -4 12 -1 16 6 7 11 10 11 14 0 3
-9 6 -10 6 -2 1 17 -13 23 -29 13z"/>
<path d="M3406 5673 c-6 -14 -5 -15 5 -6 7 7 10 15 7 18 -3 3 -9 -2 -12 -12z"/>
<path d="M3350 5663 c0 -11 7 -20 15 -20 18 0 16 28 -2 35 -8 2 -13 -5 -13
-15z"/>
<path d="M3480 5663 c0 -14 -2 -15 -9 -4 -6 9 -11 10 -15 2 -4 -6 -2 -11 4
-11 6 0 8 -4 5 -10 -3 -6 1 -7 9 -4 14 5 24 44 11 44 -3 0 -5 -8 -5 -17z"/>
<path d="M3400 5637 c0 -10 4 -17 10 -17 5 0 7 -7 4 -15 -5 -11 -2 -13 10 -9
20 8 20 6 -4 34 -16 18 -20 20 -20 7z"/>
<path d="M3303 5610 c-12 -28 -8 -39 8 -23 6 6 9 19 6 29 -3 17 -5 16 -14 -6z"/>
<path d="M3483 5595 c0 -22 2 -30 4 -17 2 12 2 30 0 40 -3 9 -5 -1 -4 -23z"/>
<path d="M3360 5613 c0 -7 -7 -13 -15 -13 -9 0 -12 -6 -8 -16 6 -15 8 -15 21
2 14 18 14 18 7 -1 -4 -11 -10 -30 -12 -43 -3 -12 -9 -25 -14 -28 -5 -3 -9
-11 -9 -17 1 -7 10 -1 20 12 11 13 20 19 20 14 0 -5 -5 -14 -11 -20 -8 -8 -8
-17 0 -30 7 -14 6 -27 -4 -46 -13 -25 -11 -31 6 -29 4 1 5 -9 3 -21 -2 -12 3
-7 12 13 11 23 12 36 5 38 -6 2 -11 8 -11 14 0 6 7 5 16 -3 13 -10 17 -10 24
0 4 8 13 10 19 7 6 -4 12 -1 12 6 5 50 3 69 -9 85 -12 16 -13 13 -6 -21 5 -31
3 -42 -11 -52 -14 -11 -20 -10 -32 2 -16 16 -10 49 8 39 6 -4 8 -14 5 -22 -4
-8 -1 -13 6 -11 6 2 13 14 15 27 2 15 -1 20 -9 15 -8 -5 -9 -2 -4 11 5 14 4
16 -8 6 -11 -9 -15 -7 -20 14 -4 14 -4 30 -1 35 3 6 1 18 -4 27 -6 10 -11 12
-11 6z"/>
<path d="M3455 5580 c3 -5 8 -10 11 -10 2 0 4 5 4 10 0 6 -5 10 -11 10 -5 0
-7 -4 -4 -10z"/>
<path d="M3480 5529 c0 -5 -4 -7 -10 -4 -5 3 -10 -2 -10 -13 0 -10 7 -19 15
-19 9 0 15 10 15 24 0 13 -2 23 -5 23 -3 0 -5 -5 -5 -11z"/>
<path d="M3450 5460 c0 -5 9 -14 20 -20 23 -12 26 -5 6 16 -17 16 -26 18 -26
4z"/>
<path d="M7395 5643 c128 -65 205 -100 195 -90 -8 9 -310 157 -318 156 -4 0
52 -30 123 -66z"/>
<path d="M4911 5464 c0 -11 3 -14 6 -6 3 7 2 16 -1 19 -3 4 -6 -2 -5 -13z"/>
<path d="M3473 4966 c-10 -12 -63 -79 -118 -147 -182 -226 -295 -381 -295
-404 0 -12 6 -27 13 -32 14 -11 180 -87 317 -145 128 -54 155 -66 193 -82 17
-8 91 -40 162 -71 72 -31 157 -69 190 -84 33 -16 71 -32 85 -36 14 -4 67 -28
118 -51 50 -24 94 -44 97 -44 3 0 39 -16 81 -35 41 -19 78 -35 80 -35 3 0 43
-18 89 -40 46 -22 95 -40 108 -40 13 0 45 -6 71 -14 l46 -14 24 31 c13 18 94
129 181 247 158 216 201 270 217 270 5 0 7 -4 4 -9 -3 -4 6 -19 19 -31 30 -28
32 -40 7 -33 -14 3 -36 -17 -89 -84 -64 -80 -308 -409 -345 -464 l-15 -23 -94
43 c-426 198 -1006 457 -1042 466 -22 6 -25 3 -30 -37 -4 -24 -11 -63 -16 -88
-13 -58 -14 -800 -1 -834 5 -14 20 -32 33 -41 27 -18 365 -172 482 -220 143
-59 228 -95 280 -119 96 -46 381 -169 475 -206 52 -20 132 -53 176 -73 141
-64 118 -70 671 169 824 355 976 421 1051 455 l72 32 -2 466 -3 466 -3 -460
-2 -460 -243 -104 c-1367 -589 -1354 -584 -1361 -572 -3 4 -6 355 -6 780 -1
424 -5 771 -9 771 -4 0 -8 7 -8 15 0 8 4 15 9 15 4 0 8 20 8 45 0 25 4 45 8
45 4 0 64 -78 132 -172 227 -316 290 -398 305 -398 13 0 225 93 528 232 59 27
199 89 311 138 112 48 231 102 264 118 34 17 63 26 66 21 2 -5 3 -4 2 3 -2 7
-13 12 -24 11 -28 -3 -975 -418 -1102 -483 -21 -11 -45 -20 -52 -20 -12 0 -47
47 -104 134 l-18 29 24 -13 c14 -7 40 -24 58 -37 23 -17 41 -23 57 -19 13 3
162 67 332 142 169 75 409 181 533 234 560 244 780 343 780 354 0 7 -20 -1
-175 -69 -71 -31 -185 -81 -253 -111 -67 -30 -216 -94 -330 -143 -114 -50
-360 -157 -547 -240 -212 -93 -342 -145 -344 -138 -5 14 -312 434 -384 525
-27 35 -48 64 -46 66 2 2 18 8 34 14 17 6 131 52 255 102 124 51 317 130 430
175 113 46 309 126 435 178 127 52 290 118 363 146 131 52 134 52 155 34 l22
-18 -20 23 c-15 18 -27 23 -50 19 -30 -5 -233 -84 -745 -292 -551 -223 -688
-278 -791 -320 l-105 -44 -195 79 c-106 43 -396 160 -644 260 -682 276 -792
320 -808 320 -9 0 -24 -11 -34 -24z m807 -296 c371 -149 721 -289 776 -312
l102 -40 -93 -121 c-51 -67 -150 -201 -220 -297 -150 -206 -134 -187 -143
-174 -9 15 -69 45 -242 121 -79 35 -156 71 -170 80 -14 10 -29 17 -35 18 -20
1 -85 29 -85 37 0 4 -3 7 -7 7 -19 -3 -33 2 -33 11 0 6 8 11 18 11 16 1 16 2
-1 6 -13 3 -15 8 -8 17 8 9 7 13 -4 13 -8 0 -15 -4 -15 -8 0 -5 -6 -6 -14 -3
-8 3 -17 0 -21 -6 -3 -6 -3 -10 2 -9 4 1 17 1 27 0 16 -1 17 -4 8 -13 -10 -10
-15 -10 -21 0 -5 8 -12 13 -17 13 -5 0 -9 7 -9 16 0 9 -6 18 -13 21 -8 2 -10
-3 -6 -15 3 -10 2 -14 -3 -8 -4 6 -14 10 -22 10 -8 0 -15 6 -17 13 -1 7 0 8 3
2 8 -16 43 8 43 30 0 10 -4 22 -10 25 -10 6 -14 -7 -10 -34 1 -11 -2 -10 -15
2 -9 9 -15 22 -14 29 3 28 -3 41 -10 19 -4 -14 -12 -26 -19 -27 -8 -2 -9 -1
-1 3 8 4 8 7 1 12 -16 10 -3 51 14 44 8 -3 14 -1 14 5 0 13 -29 24 -42 16 -5
-3 -7 -12 -4 -20 3 -8 1 -14 -5 -14 -6 0 -8 -10 -4 -22 4 -16 4 -19 -3 -9 -5
7 -14 11 -20 7 -16 -10 -24 12 -12 31 9 15 10 14 4 -6 -9 -32 10 -19 30 21 19
38 19 38 1 38 -8 0 -15 5 -15 10 0 6 6 10 14 10 20 0 14 44 -6 48 -10 2 -18
-1 -18 -7 0 -6 7 -8 15 -5 8 4 15 1 15 -5 0 -6 -9 -11 -21 -11 -11 0 -17 -4
-14 -10 3 -5 2 -10 -4 -10 -17 0 -24 22 -10 31 11 7 11 9 1 9 -9 0 -11 7 -7
20 4 11 2 20 -4 20 -6 0 -11 -10 -12 -22 -1 -22 -1 -22 -9 2 -4 14 -8 20 -9
14 -1 -7 -8 -15 -17 -18 -12 -5 -15 0 -12 22 2 16 8 26 16 24 8 -1 11 2 8 7
-4 5 -2 12 4 16 5 3 10 11 10 17 0 6 -6 5 -16 -3 -14 -11 -18 -10 -30 6 -8 10
-12 27 -8 37 3 10 1 18 -5 18 -6 0 -11 18 -11 39 0 25 -5 41 -15 45 -8 3 -15
1 -15 -3 0 -5 6 -11 13 -14 6 -2 8 -8 4 -13 -5 -5 -15 0 -24 11 -15 20 -15 20
-8 -2 5 -17 3 -22 -7 -18 -17 7 -18 46 -1 63 8 8 13 9 13 3 0 -6 5 -11 10 -11
6 0 10 6 10 14 0 10 -8 13 -25 10 -14 -2 -25 0 -25 6 0 6 -4 9 -9 5 -5 -3 -16
1 -24 9 -21 21 -30 6 -10 -16 15 -17 15 -18 -7 -18 -14 0 -20 5 -17 13 3 8 1
20 -4 28 -7 12 -9 12 -10 -1 -1 -8 -1 -22 0 -30 2 -13 0 -13 -8 -1 -7 11 -14
9 -35 -13 -32 -31 -36 -32 -29 -6 3 11 16 23 29 26 13 3 24 10 24 15 0 12 -47
11 -52 -1 -2 -6 -9 -5 -18 1 -11 8 -12 12 -2 16 6 2 12 11 12 18 0 7 7 15 15
19 20 7 19 24 -1 22 -9 0 -19 5 -21 12 -4 9 2 11 21 6 28 -7 32 2 15 26 -9 12
-10 12 -5 -3 4 -12 2 -17 -6 -14 -7 2 -13 12 -13 22 0 10 -5 20 -10 22 -6 2
-10 -16 -9 -44 2 -49 -14 -77 -36 -63 -9 6 -7 10 9 15 13 4 18 11 14 18 -4 7
-8 15 -8 20 0 4 -3 7 -7 7 -5 0 -12 0 -17 0 -5 0 -11 -12 -13 -27 -3 -26 -4
-26 -9 -6 -4 12 -1 33 7 47 7 14 9 26 3 26 -5 0 -9 -4 -9 -9 0 -4 -11 -7 -24
-6 -19 3 -23 -1 -18 -18 3 -14 1 -18 -6 -13 -7 4 -12 2 -12 -3 0 -6 5 -11 10
-11 6 0 10 -10 9 -22 0 -16 -2 -18 -6 -8 -3 8 -11 18 -17 22 -13 9 -15 31 -3
39 5 3 1 14 -9 23 -12 12 -14 20 -6 25 6 3 15 19 21 34 6 16 17 26 28 25 40
-3 55 2 49 17 -7 19 3 47 15 39 15 -9 10 13 -6 26 -12 10 -15 9 -16 -6 -1 -11
-1 -22 0 -26 0 -5 -3 -8 -9 -8 -5 0 -10 3 -11 8 0 4 -2 16 -4 27 -3 14 1 21
13 23 56 6 84 23 61 37 -8 5 -10 4 -5 -3 4 -7 3 -12 -3 -12 -5 0 -16 -2 -24
-5 -16 -7 -20 26 -3 37 8 5 7 8 -1 8 -7 0 -13 7 -13 15 0 12 7 12 48 -4 26
-11 351 -141 722 -291z m-796 148 c4 -17 2 -28 -4 -28 -9 0 -15 29 -11 53 0 4
-4 7 -10 7 -7 0 -9 -9 -6 -21 4 -15 3 -18 -7 -9 -10 8 -12 5 -9 -13 3 -13 -2
-29 -10 -36 -13 -10 -16 -8 -22 8 -4 14 2 29 19 48 14 15 26 32 26 38 0 18 28
-20 34 -47z m-88 -53 c-3 -10 1 -15 12 -15 14 0 14 -2 3 -9 -10 -6 -12 -19 -8
-40 4 -19 3 -30 -2 -26 -5 3 -12 -3 -15 -12 -2 -10 -2 3 1 30 4 39 3 47 -11
47 -14 0 -14 3 -4 20 15 23 33 27 24 5z m-36 -44 c0 -5 -7 -11 -14 -14 -10 -4
-13 -1 -9 9 6 15 23 19 23 5z m10 -41 c0 -5 -2 -10 -4 -10 -3 0 -8 5 -11 10
-3 6 -1 10 4 10 6 0 11 -4 11 -10z m116 -26 c0 -20 6 -39 14 -44 12 -7 10 -9
-5 -8 -19 2 -23 20 -17 76 4 25 8 11 8 -24z m43 -75 c-22 -14 -33 -10 -19 6 7
8 17 12 22 9 6 -4 5 -10 -3 -15z m-70 -11 c0 -13 -3 -17 -6 -10 -2 6 -9 10
-13 7 -5 -3 -12 0 -16 6 -4 7 -3 9 4 5 6 -3 13 -2 17 4 10 16 15 12 14 -12z
m68 -30 c2 -17 0 -19 -7 -8 -5 8 -6 18 -4 22 8 12 10 10 11 -14z m38 12 c3 -5
-1 -10 -10 -10 -9 0 -13 5 -10 10 3 6 8 10 10 10 2 0 7 -4 10 -10z m161 -24
c0 -13 -4 -22 -7 -20 -3 2 -16 -6 -27 -17 l-22 -20 0 25 c0 14 5 28 10 31 6 3
10 0 10 -6 0 -7 8 -3 18 9 21 27 20 27 18 -2z m-92 -7 c8 12 26 6 26 -8 0 -15
-43 -6 -47 9 -4 12 -3 12 5 1 7 -9 12 -10 16 -2z m168 -71 c2 -13 -5 -31 -14
-40 -10 -10 -15 -25 -12 -35 4 -12 3 -14 -3 -6 -5 7 -21 10 -36 8 -20 -4 -27
-1 -27 10 0 11 6 14 24 9 14 -3 27 -1 31 7 5 7 4 10 -1 6 -6 -3 -15 8 -21 24
-10 25 -9 30 1 26 7 -3 19 -1 27 4 22 13 27 11 31 -13z m-112 2 c0 -5 -4 -10
-10 -10 -5 0 -10 5 -10 10 0 6 5 10 10 10 6 0 10 -4 10 -10z m32 -34 c-3 -5
-9 -1 -12 10 -4 10 -5 23 -2 28 3 5 9 1 12 -10 4 -10 5 -23 2 -28z m-29 -43
c-3 -8 0 -18 6 -23 10 -5 9 -9 -3 -13 -9 -4 -16 -2 -16 3 0 5 -8 7 -17 4 -17
-5 -16 -5 0 6 12 7 16 18 12 31 -5 14 -2 17 9 13 8 -3 12 -12 9 -21z m131 2
c14 -21 14 -29 5 -48 -7 -12 -12 -23 -11 -24 1 -2 2 -11 2 -20 0 -15 -2 -16
-10 -3 -8 12 -10 10 -10 -8 0 -15 -5 -22 -12 -19 -7 2 -13 15 -13 28 0 17 5
23 18 21 9 -2 16 1 15 5 -1 4 2 19 6 32 5 14 4 27 -4 35 -8 8 -10 7 -4 -7 4
-12 -1 -24 -17 -38 -19 -16 -25 -17 -36 -6 -8 7 -11 21 -7 30 8 22 25 12 18
-11 -5 -15 -4 -15 6 1 6 9 16 15 21 11 6 -3 7 4 3 20 -8 33 9 34 30 1z m-97
-45 c-1 -11 -7 -20 -14 -20 -11 0 -11 4 -1 20 7 11 14 20 15 20 1 0 1 -9 0
-20z m-80 -20 c-2 -24 -13 -26 -21 -4 -4 10 -2 13 6 8 8 -5 9 -2 5 10 -4 9 -3
15 2 11 6 -3 9 -14 8 -25z m41 -18 c-2 -16 2 -34 10 -41 7 -7 11 -16 7 -19 -3
-4 -10 0 -14 7 -7 11 -9 11 -13 0 -3 -8 -7 -5 -10 9 -4 12 -2 22 3 22 5 0 9 7
9 16 0 8 -4 12 -10 9 -5 -3 -10 -2 -10 4 0 8 12 17 29 20 2 1 1 -12 -1 -27z
m72 -2 c0 -5 -2 -10 -4 -10 -3 0 -8 5 -11 10 -3 6 -1 10 4 10 6 0 11 -4 11
-10z m-30 -10 c0 -5 -2 -10 -4 -10 -3 0 -8 5 -11 10 -3 6 -1 10 4 10 6 0 11
-4 11 -10z m-125 -10 c-3 -5 -1 -19 5 -30 11 -21 10 -23 -13 -14 -15 6 -11 54
5 54 5 0 6 -4 3 -10z m40 0 c-3 -5 -11 -10 -16 -10 -6 0 -7 5 -4 10 3 6 11 10
16 10 6 0 7 -4 4 -10z m221 -6 c-8 -20 4 -41 14 -24 4 6 7 -2 6 -19 -1 -33
-16 -44 -16 -12 0 24 -16 36 -23 19 -3 -7 -6 -1 -6 13 -1 27 6 39 22 39 5 0 6
-7 3 -16z m-226 -36 c0 -18 -2 -20 -9 -8 -6 8 -7 18 -5 22 9 14 14 9 14 -14z
m178 -13 c-3 -3 -9 2 -12 12 -6 14 -5 15 5 6 7 -7 10 -15 7 -18z m104 -27 c-7
-7 -12 -8 -12 -2 0 6 3 14 7 17 3 4 9 5 12 2 2 -3 -1 -11 -7 -17z m1311 -70
c24 -37 34 -68 23 -68 -5 0 -76 98 -76 105 0 3 6 5 13 5 7 0 25 -19 40 -42z
m-1234 -50 c0 -13 -3 -17 -6 -10 -2 6 -9 10 -14 6 -10 -6 -12 9 -2 19 13 14
23 7 22 -15z m-333 -17 c79 -33 703 -312 902 -403 72 -34 137 -67 143 -75 23
-26 -20 -12 -161 54 -105 49 -475 216 -595 268 -55 24 -127 57 -160 73 -33 16
-90 41 -128 57 -37 15 -72 34 -78 42 -17 20 0 16 77 -16z m1687 -98 c18 -20
32 -41 32 -47 0 -6 12 -24 27 -41 31 -33 36 -47 14 -39 -14 5 -116 145 -116
158 0 13 12 4 43 -31z"/>
<path d="M3597 4871 c-4 -17 -3 -21 5 -13 5 5 8 16 6 23 -3 8 -7 3 -11 -10z"/>
<path d="M3595 4810 c-3 -5 1 -10 10 -10 9 0 13 5 10 10 -3 6 -8 10 -10 10 -2
0 -7 -4 -10 -10z"/>
<path d="M3530 4794 c0 -8 5 -12 10 -9 6 3 10 10 10 16 0 5 -4 9 -10 9 -5 0
-10 -7 -10 -16z"/>
<path d="M3571 4783 c-1 -19 -7 -23 -32 -23 -17 0 -28 4 -24 10 3 6 1 10 -4
10 -6 0 -11 -6 -11 -14 0 -8 -5 -18 -12 -22 -7 -5 -9 -2 -6 7 4 10 -1 15 -13
16 -10 1 -19 -2 -19 -8 0 -5 5 -9 12 -9 6 0 4 -6 -7 -13 -12 -10 -14 -16 -7
-21 7 -4 12 -2 12 5 0 7 10 9 30 6 23 -5 28 -3 23 8 -3 9 1 15 10 15 8 0 17
-4 19 -9 7 -20 40 18 35 41 -4 23 -4 23 -6 1z"/>
<path d="M3600 4755 c0 -8 4 -15 10 -15 5 0 7 7 4 15 -4 8 -8 15 -10 15 -2 0
-4 -7 -4 -15z"/>
<path d="M3636 4735 c-3 -8 -1 -15 4 -15 6 0 10 7 10 15 0 8 -2 15 -4 15 -2 0
-6 -7 -10 -15z"/>
<path d="M3660 4739 c0 -5 5 -7 10 -4 6 3 10 8 10 11 0 2 -4 4 -10 4 -5 0 -10
-5 -10 -11z"/>
<path d="M3707 4733 c-4 -3 -7 -11 -7 -17 0 -6 5 -5 12 2 6 6 9 14 7 17 -3 3
-9 2 -12 -2z"/>
<path d="M3530 4700 c0 -5 5 -10 10 -10 6 0 10 5 10 10 0 6 -4 10 -10 10 -5 0
-10 -4 -10 -10z"/>
<path d="M3635 4700 c-3 -5 -1 -10 4 -10 6 0 11 5 11 10 0 6 -2 10 -4 10 -3 0
-8 -4 -11 -10z"/>
<path d="M3633 4652 c0 -12 5 -22 9 -22 11 0 10 12 -2 30 -7 12 -9 10 -7 -8z"/>
<path d="M3730 4641 c0 -5 7 -11 15 -15 8 -3 15 -1 15 3 0 5 -7 11 -15 15 -8
3 -15 1 -15 -3z"/>
<path d="M3651 4619 c-18 -11 -36 -17 -41 -14 -5 3 -11 1 -15 -5 -4 -6 6 -10
24 -10 17 0 31 4 31 9 0 5 10 7 23 4 16 -3 18 -2 8 5 -11 8 -11 10 0 14 8 3
12 8 9 11 -3 4 -21 -3 -39 -14z"/>
<path d="M3861 4614 c0 -11 3 -14 6 -6 3 7 2 16 -1 19 -3 4 -6 -2 -5 -13z"/>
<path d="M3742 4592 c7 -9 13 -18 14 -20 1 -2 4 4 7 12 3 8 -2 16 -14 19 -17
5 -18 3 -7 -11z"/>
<path d="M3865 4530 c-3 -6 1 -7 9 -4 18 7 21 14 7 14 -6 0 -13 -4 -16 -10z"/>
<path d="M3820 4521 c0 -6 4 -13 10 -16 6 -3 7 1 4 9 -7 18 -14 21 -14 7z"/>
<path d="M3830 4460 c0 -11 2 -20 4 -20 2 0 6 9 9 20 3 11 1 20 -4 20 -5 0 -9
-9 -9 -20z"/>
<path d="M3865 4469 c-11 -16 -1 -19 13 -3 7 8 8 14 3 14 -5 0 -13 -5 -16 -11z"/>
<path d="M3895 4430 c-3 -5 -1 -10 4 -10 6 0 11 5 11 10 0 6 -2 10 -4 10 -3 0
-8 -4 -11 -10z"/>
<path d="M3996 4403 c-6 -14 -5 -15 5 -6 7 7 10 15 7 18 -3 3 -9 -2 -12 -12z"/>
<path d="M3939 4398 c14 -19 32 -15 30 5 0 8 -2 8 -6 -1 -4 -10 -8 -10 -21 0
-15 12 -16 11 -3 -4z"/>
<path d="M3886 4388 c3 -5 10 -6 15 -3 13 9 11 12 -6 12 -8 0 -12 -4 -9 -9z"/>
<path d="M3990 4365 c-11 -13 -15 -13 -21 -3 -6 8 -9 9 -9 2 0 -6 6 -17 13
-23 11 -8 16 -5 25 14 13 29 10 32 -8 10z"/>
<path d="M3930 4349 c0 -5 5 -7 10 -4 6 3 10 8 10 11 0 2 -4 4 -10 4 -5 0 -10
-5 -10 -11z"/>
<path d="M3890 4338 c0 -8 7 -15 15 -15 18 0 15 19 -3 25 -7 2 -12 -3 -12 -10z"/>
<path d="M3930 4310 c0 -5 5 -10 10 -10 6 0 10 5 10 10 0 6 -4 10 -10 10 -5 0
-10 -4 -10 -10z"/>
<path d="M3960 4303 c0 -15 39 -43 45 -33 4 6 2 10 -4 10 -5 0 -17 7 -25 16
-9 8 -16 12 -16 7z"/>
<path d="M4030 4271 c0 -5 -3 -17 -6 -26 -6 -15 -4 -15 14 -4 11 7 18 19 15
26 -6 15 -23 18 -23 4z"/>
<path d="M3993 4233 c-17 -6 -16 -30 1 -36 9 -4 14 2 14 19 0 13 -1 24 -2 23
0 0 -7 -3 -13 -6z"/>
<path d="M4027 4198 c-8 -30 -1 -35 12 -9 6 11 7 22 2 25 -5 3 -11 -4 -14 -16z"/>
<path d="M4086 4185 c4 -8 10 -12 15 -9 11 6 2 24 -11 24 -5 0 -7 -7 -4 -15z"/>
<path d="M4076 4108 c3 -4 9 -8 15 -8 5 0 9 4 9 8 0 5 -7 9 -15 9 -8 0 -12 -4
-9 -9z"/>
<path d="M4125 4109 c-4 -6 -5 -12 -2 -15 2 -3 7 2 10 11 7 17 1 20 -8 4z"/>
<path d="M4163 4071 c-1 -10 5 -18 13 -18 17 0 18 11 1 25 -10 8 -13 7 -14 -7z"/>
<path d="M4090 4069 c0 -5 5 -7 10 -4 6 3 10 8 10 11 0 2 -4 4 -10 4 -5 0 -10
-5 -10 -11z"/>
<path d="M4295 4059 c-4 -6 -5 -12 -2 -15 2 -3 7 2 10 11 7 17 1 20 -8 4z"/>
<path d="M4175 4019 c-4 -12 -2 -26 4 -32 8 -8 11 -2 11 21 0 37 -6 41 -15 11z"/>
<path d="M4226 3998 c5 -7 2 -9 -9 -5 -11 4 -14 2 -10 -9 7 -18 17 -18 32 0 9
11 8 15 -4 20 -11 4 -14 2 -9 -6z"/>
<path d="M4276 3991 c-3 -5 1 -11 9 -14 9 -4 12 -1 8 9 -6 16 -10 17 -17 5z"/>
<path d="M4247 3973 c-4 -3 -7 -11 -7 -17 0 -6 5 -5 12 2 6 6 9 14 7 17 -3 3
-9 2 -12 -2z"/>
<path d="M3760 4440 c-13 -8 -12 -10 3 -10 9 0 17 5 17 10 0 12 -1 12 -20 0z"/>
<path d="M6940 4836 c0 -2 8 -10 18 -17 15 -13 16 -12 3 4 -13 16 -21 21 -21
13z"/>
<path d="M6980 4786 c0 -2 8 -10 18 -17 15 -13 16 -12 3 4 -13 16 -21 21 -21
13z"/>
<path d="M7010 4746 c0 -2 8 -10 18 -17 15 -13 16 -12 3 4 -13 16 -21 21 -21
13z"/>
<path d="M7170 4540 c17 -22 34 -40 37 -40 2 0 -10 18 -27 40 -17 22 -34 40
-37 40 -2 0 10 -18 27 -40z"/>
<path d="M4901 2113 c21 -34 37 -36 31 -5 -3 15 -7 21 -10 14 -3 -10 -7 -10
-20 0 -14 12 -14 11 -1 -9z"/>
<path d="M5085 2020 c-3 -5 1 -10 9 -10 9 0 16 5 16 10 0 6 -4 10 -9 10 -6 0
-13 -4 -16 -10z"/>
<path d="M6320 8442 c8 -5 26 -13 40 -16 17 -5 20 -4 10 2 -8 5 -26 13 -40 16
-17 5 -20 4 -10 -2z"/>
<path d="M6400 8412 c8 -5 26 -13 40 -16 17 -5 20 -4 10 2 -8 5 -26 13 -40 16
-17 5 -20 4 -10 -2z"/>
<path d="M6500 8370 c8 -5 20 -10 25 -10 6 0 3 5 -5 10 -8 5 -19 10 -25 10 -5
0 -3 -5 5 -10z"/>
<path d="M6730 8266 c0 -2 7 -7 16 -10 8 -3 12 -2 9 4 -6 10 -25 14 -25 6z"/>
<path d="M6830 8216 c0 -3 9 -10 20 -16 11 -6 20 -8 20 -6 0 3 -9 10 -20 16
-11 6 -20 8 -20 6z"/>
<path d="M8410 5420 c0 -5 5 -10 11 -10 5 0 7 5 4 10 -3 6 -8 10 -11 10 -2 0
-4 -4 -4 -10z"/>
<path d="M8370 5383 c0 -5 5 -15 10 -23 8 -12 10 -11 10 8 0 12 -4 22 -10 22
-5 0 -10 -3 -10 -7z"/>
<path d="M8415 5301 c-3 -5 -2 -12 3 -15 5 -3 9 1 9 9 0 17 -3 19 -12 6z"/>
<path d="M8641 5244 c0 -11 3 -14 6 -6 3 7 2 16 -1 19 -3 4 -6 -2 -5 -13z"/>
<path d="M8460 5225 c0 -8 2 -15 4 -15 2 0 6 7 10 15 3 8 1 15 -4 15 -6 0 -10
-7 -10 -15z"/>
<path d="M8422 5208 c7 -15 15 -23 17 -17 2 6 -4 18 -13 27 -15 15 -15 15 -4
-10z"/>
<path d="M8606 5207 c3 -10 9 -15 12 -12 3 3 0 11 -7 18 -10 9 -11 8 -5 -6z"/>
<path d="M8526 5202 c-3 -5 1 -9 9 -9 8 0 12 4 9 9 -3 4 -7 8 -9 8 -2 0 -6 -4
-9 -8z"/>
<path d="M8640 5181 c0 -6 5 -13 10 -16 6 -3 10 1 10 9 0 9 -4 16 -10 16 -5 0
-10 -4 -10 -9z"/>
<path d="M8526 5163 c-4 -10 -4 -14 0 -11 4 4 16 3 27 -3 15 -9 18 -8 12 2 -6
9 -3 11 9 6 10 -4 22 -7 27 -7 5 0 9 -10 9 -22 1 -22 1 -22 11 -4 12 19 -1 36
-28 36 -7 0 -13 5 -13 12 0 9 -3 9 -12 0 -15 -15 -32 -16 -23 -2 3 6 2 10 -3
10 -6 0 -13 -8 -16 -17z"/>
<path d="M8485 5160 c-3 -5 -1 -10 4 -10 6 0 11 5 11 10 0 6 -2 10 -4 10 -3 0
-8 -4 -11 -10z"/>
<path d="M8419 5139 c-9 -17 -13 -19 -20 -8 -5 8 -9 10 -9 4 0 -5 4 -16 9 -23
7 -11 11 -11 24 2 14 15 16 14 22 -4 3 -11 4 -24 1 -29 -9 -14 4 -41 20 -41
11 0 12 4 4 19 -13 26 -13 34 3 25 9 -5 9 -4 0 6 -10 11 -8 17 9 32 12 10 17
18 12 18 -6 0 -16 -6 -23 -12 -10 -11 -11 -9 -5 6 5 13 4 17 -4 12 -7 -4 -12
-2 -12 3 0 19 -19 12 -31 -10z"/>
<path d="M8525 5130 c3 -5 8 -10 11 -10 2 0 4 5 4 10 0 6 -5 10 -11 10 -5 0
-7 -4 -4 -10z"/>
<path d="M8645 5110 c2 -27 15 -38 15 -12 0 11 -4 23 -8 26 -5 3 -8 -4 -7 -14z"/>
<path d="M8490 5087 c0 -16 4 -26 9 -23 5 4 12 0 14 -6 4 -9 6 -8 7 2 0 8 8
-1 17 -20 9 -22 17 -30 20 -21 3 7 2 16 -3 20 -5 3 -9 13 -9 21 0 8 -7 15 -15
15 -8 0 -20 9 -27 20 -12 19 -12 18 -13 -8z"/>
<path d="M8554 5098 c-5 -8 -2 -9 9 -5 9 3 19 2 22 -4 4 -5 11 -7 16 -4 5 4 9
2 9 -4 0 -5 -6 -12 -12 -14 -8 -4 -7 -6 3 -6 32 -2 29 27 -3 38 -38 13 -35 13
-44 -1z"/>
<path d="M8640 5063 c0 -4 5 -15 10 -23 8 -13 10 -13 10 2 0 9 -4 20 -10 23
-5 3 -10 3 -10 -2z"/>
<path d="M8692 4850 c0 -14 2 -19 5 -12 2 6 2 18 0 25 -3 6 -5 1 -5 -13z"/>
<path d="M8671 4624 c0 -11 3 -14 6 -6 3 7 2 16 -1 19 -3 4 -6 -2 -5 -13z"/>
<path d="M8662 4550 c0 -14 2 -19 5 -12 2 6 2 18 0 25 -3 6 -5 1 -5 -13z"/>
<path d="M8651 4484 c0 -11 3 -14 6 -6 3 7 2 16 -1 19 -3 4 -6 -2 -5 -13z"/>
<path d="M8641 4434 c0 -11 3 -14 6 -6 3 7 2 16 -1 19 -3 4 -6 -2 -5 -13z"/>
<path d="M8631 4374 c0 -11 3 -14 6 -6 3 7 2 16 -1 19 -3 4 -6 -2 -5 -13z"/>
<path d="M8611 4284 c0 -11 3 -14 6 -6 3 7 2 16 -1 19 -3 4 -6 -2 -5 -13z"/>
<path d="M8601 4244 c0 -11 3 -14 6 -6 3 7 2 16 -1 19 -3 4 -6 -2 -5 -13z"/>
<path d="M8591 4204 c0 -11 3 -14 6 -6 3 7 2 16 -1 19 -3 4 -6 -2 -5 -13z"/>
<path d="M8581 4164 c0 -11 3 -14 6 -6 3 7 2 16 -1 19 -3 4 -6 -2 -5 -13z"/>
<path d="M8566 4114 c-4 -14 -5 -28 -3 -31 3 -2 8 8 11 23 4 14 5 28 3 31 -3
2 -8 -8 -11 -23z"/>
<path d="M8511 3943 c-1 -6 -4 -20 -7 -30 -5 -17 -5 -17 6 0 6 10 9 23 6 30
-3 9 -5 9 -5 0z"/>
</g>
</svg>
